<?xml version="1.0" encoding="UTF-8"?>
<svg version="1.1" xmlns="http://www.w3.org/2000/svg" width="1024" height="239">
<path d="M0 0 C0.74378906 0.30035156 1.48757812 0.60070312 2.25390625 0.91015625 C7.78263836 3.40944611 12.3321172 7.1785376 17 11 C18.66574942 12.33447908 20.3321941 13.66809196 22 15 C22.6084375 14.443125 23.216875 13.88625 23.84375 13.3125 C29.34614217 8.52218212 34.73156602 4.80045462 41.25 1.5625 C41.91064453 1.23314453 42.57128906 0.90378906 43.25195312 0.56445312 C55.73955351 -5.42309501 70.87636975 -6.11490971 84.17578125 -2.08984375 C98.13362837 3.29637941 108.62486773 11.49304051 115.5 24.8125 C115.81428955 25.41505615 116.1285791 26.0176123 116.45239258 26.63842773 C122.97346248 40.40036791 122.40496856 55.18585673 122.29296875 70.0234375 C122.28736226 72.22302967 122.28309715 74.42262562 122.28010559 76.6222229 C122.26873967 82.36623777 122.23934489 88.1100192 122.20599365 93.85394287 C122.16966859 100.76997047 122.15609228 107.68607683 122.13863373 114.60217285 C122.10970163 125.06827678 122.05215679 135.53387015 122 146 C103.52 146 85.04 146 66 146 C65.95101562 139.62171875 65.90203125 133.2434375 65.8515625 126.671875 C65.8161822 122.63409859 65.78022565 118.59634386 65.7421875 114.55859375 C65.68185055 108.14798057 65.62366222 101.73739777 65.578125 95.32666016 C65.54128369 90.15890709 65.49492671 84.99131941 65.44193649 79.82370758 C65.42338644 77.85095365 65.40828074 75.87816426 65.39665604 73.90535736 C65.37980416 71.14473999 65.35077152 68.38450189 65.31884766 65.62402344 C65.31668747 64.80618881 65.31452728 63.98835419 65.31230164 63.14573669 C65.32609687 57.71808315 65.32609687 57.71808315 63 53 C59.48891849 52.02469958 57.13806809 51.56937964 53.6875 52.875 C49.50819435 58.13782933 49.70019061 66.07659549 49.68115234 72.54907227 C49.67110672 73.35017929 49.6610611 74.15128632 49.65071106 74.97666931 C49.6201453 77.58990852 49.60291893 80.2030466 49.5859375 82.81640625 C49.56720437 84.64201207 49.54762939 86.46760942 49.5272522 88.29319763 C49.47615145 93.07210273 49.43640834 97.85103583 49.39910889 102.63006592 C49.35185211 108.37804552 49.29034966 114.12588858 49.23126221 119.87375641 C49.14331917 128.58244848 49.07336234 137.29111796 49 146 C30.52 146 12.04 146 -7 146 C-7.04898438 139.62171875 -7.09796875 133.2434375 -7.1484375 126.671875 C-7.1838178 122.63409859 -7.21977435 118.59634386 -7.2578125 114.55859375 C-7.31814945 108.14798057 -7.37633778 101.73739777 -7.421875 95.32666016 C-7.45871631 90.15890709 -7.50507329 84.99131941 -7.55806351 79.82370758 C-7.57661356 77.85095365 -7.59171926 75.87816426 -7.60334396 73.90535736 C-7.62019584 71.14473999 -7.64922848 68.38450189 -7.68115234 65.62402344 C-7.68331253 64.80618881 -7.68547272 63.98835419 -7.68769836 63.14573669 C-7.67390313 57.71808315 -7.67390313 57.71808315 -10 53 C-13.37350049 51.91083846 -13.37350049 51.91083846 -17 52 C-19.35264414 53.36220477 -20.69642819 54.31969351 -21.81356812 56.82321167 C-23.47644156 65.7170445 -23.35455134 74.67915632 -23.4140625 83.6953125 C-23.43280069 85.49706889 -23.45237602 87.29881676 -23.4727478 89.10055542 C-23.52379519 93.81204164 -23.56356646 98.52355622 -23.60089111 103.23516846 C-23.64819049 108.90474657 -23.70966955 114.57418697 -23.76873779 120.24365234 C-23.85661557 128.82904513 -23.92661894 137.414416 -24 146 C-42.15 146 -60.3 146 -79 146 C-79.20054405 120.89634189 -79.20054405 120.89634189 -79.24414062 110.11914062 C-79.27392273 102.79188726 -79.30899045 95.46494905 -79.37719727 88.13793945 C-79.43189435 82.22455983 -79.46149967 76.31151861 -79.47438622 70.39790535 C-79.48355878 68.15225975 -79.50146897 65.90663073 -79.52865028 63.66113091 C-79.76732927 43.1086859 -76.88722503 27.17059596 -62.1875 11.6875 C-45.40081594 -4.33730732 -21.47375308 -8.90375128 0 0 Z " fill="#0F5937" transform="translate(79,80)"/>
<path d="M0 0 C16.94560325 15.47460318 25.89861876 32.6438919 27.43481445 55.75219727 C27.96920862 77.28513873 20.51212226 96.0678719 6.2512207 111.99047852 C-7.84383622 126.68865198 -25.48575637 135.16236302 -45.92456055 136.14282227 C-52.01805901 136.21250649 -57.62334324 135.67108252 -63.7487793 134.99047852 C-63.7487793 114.53047852 -63.7487793 94.07047852 -63.7487793 72.99047852 C-61.1087793 74.31047852 -58.4687793 75.63047852 -55.7487793 76.99047852 C-48.86061003 78.76807059 -43.91729414 77.5259612 -37.7487793 73.99047852 C-33.8824387 70.77303424 -31.82385144 66.87717006 -30.7487793 61.99047852 C-30.18257993 54.85636648 -31.31346817 49.88652418 -36.0612793 44.24047852 C-42.10852559 39.17766767 -46.90917976 38.42969444 -54.6862793 38.65063477 C-59.60799181 39.19679419 -61.94676486 40.93031032 -65.1394043 44.58032227 C-71.72091332 53.52587906 -71.04680857 66.1234955 -71.06762695 76.75732422 C-71.08269539 78.55970551 -71.08269539 78.55970551 -71.09806824 80.39849854 C-71.12340169 83.64763347 -71.14041231 86.89667512 -71.15349627 90.14587808 C-71.16928177 93.55849767 -71.19602148 96.97103241 -71.2215271 100.3835907 C-71.26804512 106.82528989 -71.30491842 113.26700553 -71.33819997 119.70878524 C-71.38039239 127.77344514 -71.43568476 135.83800891 -71.4909668 143.90258789 C-71.58936405 158.26516488 -71.66817332 172.62776622 -71.7487793 186.99047852 C-89.8987793 186.99047852 -108.0487793 186.99047852 -126.7487793 186.99047852 C-126.81668075 169.23929697 -126.87186799 151.48822747 -126.90421581 133.73695183 C-126.91963929 125.49345095 -126.9406416 117.25003691 -126.97509766 109.0065918 C-127.00513925 101.81581564 -127.02438708 94.62510243 -127.03104478 87.43426526 C-127.03493223 83.63200972 -127.04397215 79.82993413 -127.06596947 76.02773666 C-127.08656884 72.43755356 -127.09256664 68.84762185 -127.08810234 65.25738525 C-127.08930116 63.33489751 -127.10531907 61.41243615 -127.12203979 59.49002075 C-127.0479081 38.27151949 -119.86411567 18.9356682 -105.3190918 3.40454102 C-77.02114211 -23.17316856 -29.68467 -26.15415617 0 0 Z " fill="#0F5936" transform="translate(737.748779296875,39.009521484375)"/>
<path d="M0 0 C16.65606044 13.22658251 25.5603396 31.64813174 28.07021904 52.56430054 C28.39963981 56.10219751 28.40328434 59.6211311 28.38598633 63.171875 C28.38613235 63.972836 28.38627838 64.773797 28.38642883 65.59902954 C28.38573824 68.21774101 28.37798622 70.83637925 28.37011719 73.45507812 C28.36824997 75.2821041 28.3668275 77.10913057 28.36582947 78.93615723 C28.36202819 83.72336227 28.35221852 88.51053653 28.34112549 93.29772949 C28.32905194 99.05310429 28.32449774 104.80848943 28.31867218 110.56387329 C28.30900532 119.28804625 28.28983209 128.01215179 28.27246094 136.73632812 C9.79246094 136.73632812 -8.68753906 136.73632812 -27.72753906 136.73632812 C-27.75332031 131.52207031 -27.77910156 126.3078125 -27.80566406 120.93554688 C-27.83085913 117.61323352 -27.85721237 114.29100881 -27.88769531 110.96875 C-27.93586829 105.70662208 -27.97997337 100.44469962 -27.99853516 95.18237305 C-28.01378648 90.93513637 -28.04837994 86.68844073 -28.09584808 82.4414463 C-28.11057515 80.82896465 -28.11857504 79.21640572 -28.11942291 77.60385704 C-27.94181686 62.65931142 -27.94181686 62.65931142 -34.53570557 49.71781921 C-39.387219 45.27515588 -43.6128295 44.37394491 -50.09472656 44.45898438 C-55.66314238 45.04556824 -59.91339939 47.51144604 -63.60253906 51.67382812 C-67.71140409 57.59542773 -68.60809023 62.59407975 -67.72753906 69.73632812 C-65.71201299 76.10974841 -62.308776 79.74675205 -56.47753906 82.98632812 C-48.64478194 85.12253461 -43.58771663 83.35638731 -35.72753906 80.73632812 C-35.72753906 99.87632812 -35.72753906 119.01632813 -35.72753906 138.73632812 C-51.20159414 143.89434649 -71.73224444 138.72442885 -85.72753906 131.73632812 C-103.60590332 122.10369745 -116.49365131 107.14694331 -122.72753906 87.73632812 C-128.36207425 67.79874208 -127.49259483 45.26552144 -117.72753906 26.73632812 C-106.50517182 7.93433785 -90.017854 -6.35950009 -68.53417969 -11.82128906 C-45.87360845 -16.89414639 -19.08734204 -13.96213714 0 0 Z " fill="#0F5936" transform="translate(357.7275390625,89.263671875)"/>
<path d="M0 0 C31.4840276 -1.18065104 58.61423687 12.16405631 81.34765625 32.89453125 C83.34829448 34.88144298 85.01472431 36.84906811 86.625 39.15625 C86.295 39.81625 85.965 40.47625 85.625 41.15625 C84.820625 40.52009766 84.820625 40.52009766 84 39.87109375 C66.53712634 26.80266033 44.99324964 21.37263881 23.36230469 24.48144531 C3.0890601 28.26369839 -15.67477859 38.49771268 -27.81640625 55.48046875 C-40.20741381 73.63326961 -45.90594686 94.82647692 -42.16015625 116.65625 C-37.3095384 138.27890468 -26.5829258 156.7744857 -7.91015625 169.00390625 C10.75630596 180.62776655 32.12251438 184.58447421 53.625 180.15625 C72.85348452 175.45726452 90.43945435 164.23860992 101.125 147.34765625 C102.73879675 144.99000006 104.55354639 143.11609511 106.625 141.15625 C103.33764794 155.40144224 95.8782834 168.00444811 86.625 179.15625 C85.93921875 180.00574219 85.2534375 180.85523438 84.546875 181.73046875 C66.33615525 203.21237335 38.98276737 215.62428922 11.16796875 217.99609375 C-18.27912497 219.85067262 -46.90405517 210.50528433 -69.17944336 191.14453125 C-89.64638926 172.64243867 -104.03329556 147.09882268 -105.53466797 119.18798828 C-106.57744852 90.41849495 -100.79925751 62.42609938 -81.375 40.15625 C-80.67503906 39.33640625 -79.97507812 38.5165625 -79.25390625 37.671875 C-60.7383786 16.49293522 -35.58814342 3.32709682 -7.5 0.40625 C-4.99961978 0.25741784 -2.49935585 0.16443131 0 0 Z " fill="#0F5936" transform="translate(900.375,12.84375)"/>
<path d="M0 0 C18.48 0 36.96 0 56 0 C56 66.33 56 132.66 56 201 C37.52 201 19.04 201 0 201 C0 134.67 0 68.34 0 0 Z " fill="#105A37" transform="translate(424,25)"/>
<path d="M0 0 C18.48 0 36.96 0 56 0 C56 48.51 56 97.02 56 147 C37.52 147 19.04 147 0 147 C0 98.49 0 49.98 0 0 Z " fill="#105A37" transform="translate(519,79)"/>
<path d="M0 0 C4.44494245 4.44494245 3.23442618 12.15813329 3.25 18.0625 C3.21572559 37.24275864 -2.52222597 52.98845274 -16 67 C-29.3375353 79.79499149 -47.38900996 86.50489328 -65.796875 86.203125 C-84.74927618 85.00126541 -100.65974062 77.57637016 -114 64 C-113.67 63.34 -113.34 62.68 -113 62 C-112.05382812 62.2165625 -111.10765625 62.433125 -110.1328125 62.65625 C-84.17062355 68.26304526 -57.60353573 64.42626925 -35 50 C-31.25371341 47.33141229 -27.55329689 44.63170852 -24.375 41.29296875 C-23 40 -23 40 -21 40 C-20.72414063 39.39929688 -20.44828125 38.79859375 -20.1640625 38.1796875 C-19 36 -19 36 -16.375 33.125 C-8.00527328 23.50697663 -3.51735992 12.07401433 0 0 Z " fill="#00836B" transform="translate(1021,86)"/>
<path d="M0 0 C6.5440398 5.17924006 10.49007016 10.96783384 11.5078125 19.3359375 C11.87885559 27.83402119 9.82873227 35.16966772 4.12890625 41.609375 C-2.34461572 47.44796731 -10.5555377 49.44486696 -19.1171875 49.04296875 C-28.23048013 47.99804841 -34.93257035 44.99862389 -40.80859375 37.734375 C-45.15641118 29.77704875 -46.12439488 21.86753852 -43.74609375 13.171875 C-40.64393544 4.94253837 -35.03323185 0.31787059 -27.23828125 -3.35546875 C-17.79674535 -6.89224988 -8.29721854 -5.59363048 0 0 Z " fill="#0F5936" transform="translate(563.80859375,18.265625)"/>
<path d="M0 0 C0.99 0.495 0.99 0.495 2 1 C6.41097743 15.42050313 2.56876705 32.13695962 -4.2109375 45.01171875 C-12.70815987 59.20467751 -24.14197768 66.5252746 -39.3125 72.25 C-55.48608654 75.53954302 -71.94857824 73.95727803 -86.12109375 65.03515625 C-90.42207149 61.96792511 -94.33015474 58.80545156 -98 55 C-97.67 54.34 -97.34 53.68 -97 53 C-96.41299316 53.14002441 -95.82598633 53.28004883 -95.22119141 53.42431641 C-71.0134648 58.78327879 -48.58296935 53.99206592 -27.83203125 41.01953125 C-13.33206587 30.99955518 -4.67330512 16.78700391 0 0 Z " fill="#288664" transform="translate(1003,70)"/>
<path d="M0 0 C0.66 0 1.32 0 2 0 C4.50095039 12.19213313 2.49006968 23.19600272 -4.26953125 33.7109375 C-10.5955165 42.07894508 -19.62263144 47.47501036 -30 49 C-41.06733771 50.144897 -51.72450121 47.48690269 -60.51171875 40.5625 C-62.15384777 38.83848003 -63.0497867 37.17191612 -64 35 C-62.50146484 35.23783203 -62.50146484 35.23783203 -60.97265625 35.48046875 C-45.05837255 37.72996454 -30.27737559 35.48042825 -17 26 C-16.36578125 25.56042969 -15.7315625 25.12085937 -15.078125 24.66796875 C-7.10974986 18.5506542 -2.6437383 9.48635507 0 0 Z " fill="#78A370" transform="translate(979,67)"/>
</svg>
